<?xml version="1.0" standalone="no"?>
<!DOCTYPE svg PUBLIC "-//W3C//DTD SVG 20010904//EN"
 "http://www.w3.org/TR/2001/REC-SVG-20010904/DTD/svg10.dtd">
<svg version="1.0" xmlns="http://www.w3.org/2000/svg"
 width="260.000000pt" height="260.000000pt" viewBox="0 0 260.000000 260.000000"
 preserveAspectRatio="xMidYMid meet">
<metadata>
Created by potrace 1.11, written by Peter Selinger 2001-2013
</metadata>
<g transform="translate(0.000000,260.000000) scale(0.100000,-0.100000)"
fill="#000000" stroke="none">
<path d="M1470 2340 c0 -20 6 -20 425 -20 l425 0 0 -425 c0 -419 0 -425 20
-425 20 0 20 5 18 443 l-3 442 -442 3 c-438 2 -443 2 -443 -18z"/>
<path d="M390 1755 l0 -455 69 0 68 0 6 -80 c27 -350 337 -660 687 -687 l80
-6 0 -68 0 -69 455 0 455 0 0 455 0 455 -69 0 -68 0 -6 80 c-7 90 -43 208 -89
290 -124 223 -359 378 -598 397 l-80 6 0 68 0 69 -455 0 -455 0 0 -455z m975
-57 c99 -176 185 -327 190 -334 7 -10 42 42 135 202 69 118 128 220 132 227 5
9 14 6 29 -10 l22 -21 -195 -334 -194 -333 258 -3 c152 -1 258 -6 258 -12 0
-5 -6 -21 -12 -36 l-13 -27 -378 6 c-337 6 -379 5 -373 -8 3 -8 57 -105 121
-215 63 -109 115 -204 115 -209 0 -6 -10 -11 -23 -11 -19 0 -49 49 -207 330
-102 181 -188 330 -191 330 -4 0 -64 -98 -134 -217 -70 -120 -130 -220 -132
-222 -2 -3 -13 4 -24 16 l-21 20 191 327 c105 180 191 329 191 332 0 2 -115 4
-256 4 l-255 0 3 23 3 22 393 3 c215 1 392 4 392 7 0 2 -58 104 -130 225 -71
122 -127 226 -124 231 3 5 15 9 27 9 18 -1 52 -54 202 -322z"/>
<path d="M242 688 l3 -443 443 -3 c437 -2 442 -2 442 18 0 20 -6 20 -425 20
l-425 0 0 425 c0 419 0 425 -20 425 -20 0 -20 -5 -18 -442z"/>
</g>
</svg>
